<?xml version="1.0" standalone="no"?>
<!DOCTYPE svg PUBLIC "-//W3C//DTD SVG 1.1//EN" "http://www.w3.org/Graphics/SVG/1.1/DTD/svg11.dtd" >
<svg xmlns="http://www.w3.org/2000/svg" xmlns:xlink="http://www.w3.org/1999/xlink" version="1.1">
<metadata></metadata>
<defs>
<font id="poppinsbold_italic" horiz-adv-x="1390" >
<font-face units-per-em="2048" ascent="1638" descent="-410" />
<missing-glyph horiz-adv-x="473" />
<glyph horiz-adv-x="0" />
<glyph horiz-adv-x="682" />
<glyph horiz-adv-x="0" />
<glyph horiz-adv-x="0" />
<glyph unicode="&#xd;" horiz-adv-x="473" />
<glyph unicode=" "  horiz-adv-x="473" />
<glyph unicode="&#x09;" horiz-adv-x="473" />
<glyph unicode="&#xa0;" horiz-adv-x="473" />
<glyph unicode="!" horiz-adv-x="802" d="M748 1489l-216 -981h-296l133 981h379zM167 28q-48 44 -48 111q0 94 70.5 160t175.5 66q80 0 127 -44.5t47 -113.5q0 -92 -71 -157.5t-171 -65.5q-82 0 -130 44z" />
<glyph unicode="&#x22;" horiz-adv-x="841" d="M555 1638l-104 -452h-236l51 452h289zM946 1638l-106 -452h-236l51 452h291z" />
<glyph unicode="#" horiz-adv-x="1851" d="M1518 897l-105 -268h248l-57 -316h-314l-123 -313h-327l123 313h-340l-123 -313h-328l123 313h-303l57 316h369l104 268h-295l56 315h362l119 304h328l-119 -304h340l119 304h327l-119 -304h254l-55 -315h-321zM1190 897h-340l-105 -268h340z" />
<glyph unicode="$" horiz-adv-x="1347" d="M897 1030q8 111 -80 144l-55 -318q147 -43 226 -74.5t141.5 -100.5t62.5 -183q0 -23 -8 -80q-18 -113 -94 -208t-200 -155.5t-282 -66.5l-28 -166h-129l28 168q-195 18 -307.5 111.5t-112.5 254.5q0 45 4 68h373q-12 -127 92 -158l58 324q-139 37 -220 69.5t-143.5 102 t-62.5 184.5q0 43 8 84q33 186 192.5 300t378.5 126l29 166h129l-29 -166q195 -16 301.5 -109.5t106.5 -256.5q0 -18 -4 -60h-375zM539 1022q0 -78 102 -123l49 285q-59 -10 -99 -45t-50 -92q-2 -9 -2 -25zM817 428q0 80 -108 121l-52 -289q63 10 105.5 49t52.5 97q2 8 2 22 z" />
<glyph unicode="%" horiz-adv-x="1667" d="M295 1372q111 90 262 90q131 0 210 -68.5t79 -195.5q0 -41 -8 -80q-29 -164 -138.5 -254t-261.5 -90q-133 0 -212 69.5t-79 196.5q0 39 7 78q30 164 141 254zM1548 1442l-1044 -1442h-338l1044 1442h338zM397 1118q-4 -37 -4 -47q0 -90 78 -90q47 0 80 34t45 103 q4 33 4 45q0 92 -80 92q-98 0 -123 -137zM1017.5 577.5q110.5 90.5 262.5 90.5q131 0 209 -68t78 -194q0 -43 -8 -82q-29 -164 -138.5 -254t-261.5 -90q-131 0 -210 68.5t-79 195.5q0 41 9 80q28 163 138.5 253.5zM1163 427q-33 -34 -45 -103q-4 -37 -4 -48q0 -90 80 -90 q47 0 79 35t44 103q4 33 4 45q0 92 -78 92q-47 0 -80 -34z" />
<glyph unicode="&#x26;" horiz-adv-x="1654" d="M1245 338l287 -338h-408l-110 129q-223 -152 -502 -152q-225 0 -355 99.5t-130 269.5q0 162 105.5 289t281.5 203q-63 98 -64 192q0 125 65.5 222.5t182.5 150.5t264 53q184 0 283.5 -84t99.5 -213q0 -27 -6 -61h-328q2 8 2 24q0 39 -26.5 60.5t-67.5 21.5 q-55 0 -94 -35.5t-39 -91.5q0 -72 82 -174l289 -342l37 57l98 130h352l-129 -179q-90 -141 -170 -231zM836 336l-265 309q-88 -41 -137 -101.5t-49 -131.5q0 -68 52 -110t145 -42q137 0 254 76z" />
<glyph unicode="'" horiz-adv-x="452" d="M555 1638l-104 -452h-236l51 452h289z" />
<glyph unicode="(" horiz-adv-x="976" d="M235.5 -82q-63.5 205 -63.5 449q0 281 82 564t234.5 529t357.5 410h346l-6 -33q-203 -170 -354.5 -400.5t-234.5 -492.5t-83 -522q0 -236 66.5 -445.5t193.5 -371.5l-6 -33h-346q-123 141 -186.5 346z" />
<glyph unicode=")" horiz-adv-x="976" d="M-143 -428l6 33q199 174 345 402.5t226 484.5t80 509q0 242 -70.5 457t-207.5 379l6 33h346q131 -143 198.5 -354t67.5 -461q0 -274 -79 -554t-226.5 -523.5t-345.5 -405.5h-346z" />
<glyph unicode="*" horiz-adv-x="1093" d="M979 1423l80 -209l-266 -88l237 -86l-162 -217l-174 181l4 -267h-239l94 267l-234 -183l-88 221l267 88l-234 82l154 211l180 -178l-4 271h244l-101 -271z" />
<glyph unicode="+" horiz-adv-x="1286" d="M1159 557h-354l-64 -362h-335l63 362h-354l55 317h356l64 365h336l-64 -365h355z" />
<glyph unicode="," horiz-adv-x="593" d="M479 332l-332 -594h-229l205 594h356z" />
<glyph unicode="-" horiz-adv-x="1187" d="M1057 864l-53 -291h-902l54 291h901z" />
<glyph unicode="." horiz-adv-x="577" d="M54 28q-48 44 -48 111q0 94 70.5 160t175.5 66q80 0 127 -44.5t47 -113.5q0 -92 -70.5 -157.5t-171.5 -65.5q-82 0 -130 44z" />
<glyph unicode="/" horiz-adv-x="927" d="M1149 1946l-963 -2329h-338l961 2329h340z" />
<glyph unicode="0" horiz-adv-x="1335" d="M351 1285q171 200 474 200q244 0 357.5 -132t113.5 -368q0 -96 -24 -240q-59 -340 -231.5 -539.5t-475.5 -199.5q-244 0 -355.5 132t-111.5 368q0 109 23 239q59 340 230 540zM948 944q0 102 -41 157.5t-139 55.5q-141 0 -205.5 -108.5t-97.5 -303.5q-23 -127 -23 -198 q0 -102 41 -157.5t140 -55.5q141 0 205.5 108.5t97.5 302.5q22 127 22 199z" />
<glyph unicode="1" horiz-adv-x="770" d="M150 1126l57 326h567l-256 -1452h-364l198 1126h-202z" />
<glyph unicode="2" horiz-adv-x="1169" d="M104 338q223 160 356.5 264.5t230.5 214t114 209.5q6 29 6 53q0 59 -31.5 90t-95.5 31q-158 0 -201 -223h-340q53 258 222.5 388t388.5 130q213 0 316.5 -96t103.5 -254q0 -49 -9 -90q-37 -209 -216 -389.5t-443 -360.5h553l-51 -285h-1028l45 261z" />
<glyph unicode="3" horiz-adv-x="1239" d="M393.5 1411q155.5 119 386.5 119q203 0 311.5 -92t108.5 -240q0 -37 -6 -74q-25 -135 -106.5 -220t-178.5 -116v-8q92 -33 143.5 -101.5t51.5 -172.5q0 -45 -8 -86q-35 -193 -186.5 -312.5t-381.5 -119.5q-219 0 -345 96t-126 293q0 27 9 96h340q-4 -33 -5 -45 q0 -72 41 -110.5t123 -38.5q92 0 147.5 59t55.5 151q0 76 -56.5 110t-176.5 34h-66l51 285h66q231 0 262 163q4 25 4 37q0 57 -34 88t-97 31q-78 0 -125 -47t-66 -117h-340q48 219 203.5 338z" />
<glyph unicode="4" horiz-adv-x="1386" d="M45 266l49 283l809 926h393l-159 -906h168l-54 -303h-168l-47 -266h-352l49 266h-688zM903 1090l-436 -521h344z" />
<glyph unicode="5" horiz-adv-x="1331" d="M1251 1190h-639l-49 -283q49 45 127 74t164 29q193 0 284 -104.5t91 -270.5q0 -49 -10 -115q-43 -240 -203 -380t-406 -140q-225 0 -346 103.5t-121 277.5q0 18 4 63h340q2 -63 43 -105t121 -42q96 0 153.5 61.5t78.5 163.5q4 20 4 56q0 152 -162 151q-70 0 -120 -33.5 t-75 -89.5h-337l155 891h957z" />
<glyph unicode="6" horiz-adv-x="1304" d="M881.5 1205q-33.5 38 -109.5 38q-117 0 -185.5 -100.5t-111.5 -321.5q59 72 151.5 113t194.5 41q172 0 270.5 -94.5t98.5 -266.5q0 -68 -10 -120q-27 -150 -107 -262.5t-206 -176t-285 -63.5q-244 0 -349.5 120.5t-105.5 348.5q0 119 31 297q70 389 232.5 578.5 t447.5 189.5q209 0 309 -107.5t100 -273.5q0 -35 -2 -53h-325q-5 75 -38.5 113zM517 632.5q-73 -65.5 -73 -186.5q0 -76 45.5 -116.5t131.5 -40.5q90 0 152.5 54t78.5 149q4 33 4 49q0 74 -43 115.5t-125 41.5q-98 0 -171 -65.5z" />
<glyph unicode="7" horiz-adv-x="1095" d="M1159 1219l-749 -1219h-367l756 1180h-635l53 297h987z" />
<glyph unicode="8" horiz-adv-x="1327" d="M236 1061q0 35 6 74q18 106 93 200.5t202 151.5t294 57q150 0 251.5 -46t150.5 -124t49 -172q0 -33 -6 -67q-18 -111 -85 -193t-163 -129q82 -43 126 -115.5t44 -169.5q0 -45 -8 -86q-27 -147 -118 -253.5t-227 -162t-292 -55.5q-211 0 -343 100.5t-132 278.5q0 49 8 92 q23 129 98.5 223.5t192.5 147.5q-141 82 -141 248zM646 1210q-56 -47 -71 -131q-4 -29 -4 -39q0 -63 40 -99t108 -36q88 0 149.5 59.5t61.5 157.5q0 66 -40 100.5t-110 34.5q-78 0 -134 -47zM511 608.5q-69 -53.5 -85 -147.5q-4 -29 -4 -43q0 -72 47 -116t135 -44 q113 0 182.5 70.5t69.5 175.5q0 74 -48 116t-132 42q-96 0 -165 -53.5z" />
<glyph unicode="9" horiz-adv-x="1259" d="M484 317q38 -41 118 -41q109 0 171.5 96.5t98.5 313.5q-53 -63 -138 -98t-181 -35q-174 0 -276.5 92t-102.5 266q0 63 10 115q41 229 202 364.5t398 135.5q238 0 341.5 -117t103.5 -340q0 -123 -29 -285q-47 -266 -125 -438t-207 -262t-321 -90q-217 0 -324.5 110.5 t-107.5 280.5q0 35 2 53h325q4 -80 42 -121zM844.5 897q64.5 68 64.5 180q0 74 -43 113t-123 39q-90 0 -151.5 -54.5t-77.5 -148.5q-4 -33 -4 -45q0 -70 43 -111t127 -41q100 0 164.5 68z" />
<glyph unicode=":" horiz-adv-x="581" d="M54 28q-48 44 -48 111q0 94 70.5 160t175.5 66q80 0 127 -44.5t47 -113.5q0 -92 -70.5 -157.5t-171.5 -65.5q-82 0 -130 44zM54 862q-48 44 -48 111q0 94 70.5 160t175.5 66q80 0 127 -44.5t47 -113.5q0 -92 -70.5 -157.5t-171.5 -65.5q-82 0 -130 44z" />
<glyph unicode=";" horiz-adv-x="710" d="M255 845q-48 44 -48 111q0 94 70.5 160t175.5 66q80 0 127 -44.5t47 -113.5q0 -92 -70.5 -157.5t-171.5 -65.5q-82 0 -130 44zM497 332l-332 -594h-229l205 594h356z" />
<glyph unicode="&#x3c;" horiz-adv-x="1128" d="M475 264l-336 453l496 452h440l-497 -452l337 -453h-440z" />
<glyph unicode="=" horiz-adv-x="1425" d="M1384 1135l-57 -316h-1149l58 316h1148zM1290 612l-55 -315h-1147l55 315h1147z" />
<glyph unicode="&#x3e;" horiz-adv-x="1107" d="M231 1169h441l336 -452l-496 -453h-440l497 453z" />
<glyph unicode="?" horiz-adv-x="1101" d="M1014.5 1427.5q111.5 -90.5 111.5 -256.5q0 -49 -8 -92q-35 -193 -180 -300t-352 -109l-37 -154h-307l55 381h123q160 0 251 40t107 144q2 10 2 31q0 55 -32.5 87t-92.5 32q-74 0 -122 -42t-60 -114h-330q20 125 94 225.5t196 159t280 58.5q190 0 301.5 -90.5zM175 28 q-48 44 -48 111q0 94 70.5 160t175.5 66q80 0 127 -44.5t47 -113.5q0 -92 -70.5 -157.5t-171.5 -65.5q-82 0 -130 44z" />
<glyph unicode="@" horiz-adv-x="2195" d="M1670 1277q179 -91 276.5 -256t97.5 -380q0 -174 -60.5 -323.5t-178 -238.5t-279.5 -89q-106 0 -177 43t-98 121q-55 -80 -145 -124t-197 -44q-154 0 -239.5 90t-85.5 250q0 150 60.5 281.5t169 211.5t245.5 80q172 0 233 -123l19 109h282l-92 -514q-6 -33 -6 -64 q0 -45 18.5 -68.5t63.5 -23.5q98 0 150.5 126t52.5 290q0 233 -149.5 367.5t-416.5 134.5q-229 0 -416.5 -111t-295 -302.5t-107.5 -420.5q0 -248 145.5 -385t405.5 -137q201 0 361 73l57 -223q-201 -88 -451 -88q-236 0 -411.5 90t-272 256t-96.5 387q0 309 145.5 560 t400.5 393.5t570 142.5q242 0 421 -91zM1175.5 312.5q63.5 74.5 63.5 179.5q0 72 -38 114.5t-105 42.5q-92 0 -151.5 -77.5t-59.5 -184.5q0 -68 35.5 -108.5t101.5 -40.5q90 0 153.5 74.5z" />
<glyph unicode="A" horiz-adv-x="1509" d="M963 254h-537l-131 -254h-367l774 1438h406l266 -1438h-370zM922 520l-84 533l-275 -533h359z" />
<glyph unicode="B" horiz-adv-x="1349" d="M1221 854q-82 -84 -197 -117q102 -23 161.5 -100.5t59.5 -181.5q0 -33 -6 -64q-31 -180 -176 -285.5t-371 -105.5h-669l253 1438h648q195 0 301 -80t106 -221q0 -35 -6 -72q-22 -127 -104 -211zM893 893q53 39 65 113q2 12 3 32q0 59 -39 91t-115 32h-229l-54 -307h228 q88 0 141 39zM895 475q0 59 -43 93t-119 34h-254l-57 -323h258q90 0 143.5 40.5t67.5 118.5q4 25 4 37z" />
<glyph unicode="C" horiz-adv-x="1560" d="M251 1101q122 167 302 260t389 93q256 0 415 -135t179 -369h-385q-27 88 -97.5 134t-172.5 46q-162 0 -281 -111.5t-151 -297.5q-10 -57 -11 -100q0 -143 80 -227.5t219 -84.5q100 0 187.5 47t146.5 136h385q-102 -233 -309 -367.5t-463 -134.5q-184 0 -321.5 71.5 t-211 202.5t-73.5 305q0 78 14 152q37 213 159 380z" />
<glyph unicode="D" horiz-adv-x="1488" d="M1158.5 1367q144.5 -71 221 -199t76.5 -300q0 -59 -14 -149q-37 -211 -159 -375t-309.5 -254t-412.5 -90h-538l253 1438h539q199 0 343.5 -71zM922 409.5q131 110.5 163 309.5q10 61 11 102q0 152 -92.5 235t-262.5 83h-168l-147 -840h166q199 0 330 110.5z" />
<glyph unicode="E" horiz-adv-x="1107" d="M578 1161l-52 -299h469l-47 -264h-469l-57 -322h530l-49 -276h-880l253 1438h881l-49 -277h-530z" />
<glyph unicode="F" horiz-adv-x="1120" d="M1212 1438l-49 -277h-585l-54 -309h439l-50 -266h-438l-102 -586h-350l253 1438h936z" />
<glyph unicode="G" horiz-adv-x="1560" d="M251 1101q122 167 304 260t395 93q258 0 415 -125t171 -346h-385q-27 72 -93.5 109.5t-162.5 37.5q-170 0 -292 -111.5t-154 -297.5q-10 -61 -11 -107q0 -152 88 -233.5t250 -81.5q131 0 231.5 66.5t161.5 189.5h-442l43 256h762l-57 -326q-61 -131 -175 -243.5 t-270 -182t-336 -69.5q-186 0 -326.5 72.5t-215 203.5t-74.5 305q0 59 14 150q37 213 159 380z" />
<glyph unicode="H" horiz-adv-x="1497" d="M1522 1438l-254 -1438h-350l104 596h-545l-104 -596h-350l253 1438h351l-101 -566h545l100 566h351z" />
<glyph unicode="I" horiz-adv-x="604" d="M627 1438l-254 -1438h-350l253 1438h351z" />
<glyph unicode="J" horiz-adv-x="1183" d="M1178 1438l-172 -979q-41 -227 -190.5 -350t-366.5 -123q-197 0 -310.5 98t-113.5 283q0 63 10 114h348q-6 -33 -6 -59q0 -61 30.5 -92t86.5 -31q63 0 105 40t56 120l172 979h351z" />
<glyph unicode="K" horiz-adv-x="1427" d="M836 733l448 -733h-428l-371 635l-112 -635h-350l253 1438h351l-111 -631l592 631h410z" />
<glyph unicode="L" horiz-adv-x="976" d="M420 266h459l-48 -266h-808l253 1438h351z" />
<glyph unicode="M" horiz-adv-x="1880" d="M1905 1438l-254 -1438h-351l154 862l-475 -862h-283l-172 866l-151 -866h-350l253 1438h414l230 -996l573 996h412z" />
<glyph unicode="N" horiz-adv-x="1540" d="M1309 0h-351l-428 887l-157 -887h-350l253 1438h351l428 -891l157 891h351z" />
<glyph unicode="O" horiz-adv-x="1609" d="M386 61.5q-138 75.5 -214 213t-76 315.5q0 252 108.5 449.5t302 308t439.5 110.5q184 0 323.5 -74.5t215.5 -211t76 -312.5q0 -252 -109 -451.5t-303.5 -311t-441.5 -111.5q-183 0 -321 75.5zM997.5 379q102.5 70 158.5 187.5t56 254.5q0 147 -81.5 231.5t-229.5 84.5 q-135 0 -238.5 -70t-160 -185.5t-56.5 -254.5q0 -147 82 -232.5t232 -85.5q135 0 237.5 70z" />
<glyph unicode="P" horiz-adv-x="1277" d="M1194 746.5q-76 -103.5 -206 -167t-306 -63.5h-217l-92 -516h-350l253 1438h568q225 0 339.5 -99.5t114.5 -269.5q0 -51 -8 -94q-20 -125 -96 -228.5zM934 975q4 33 4 47q0 66 -42 101.5t-128 35.5h-190l-64 -368h188q197 0 232 184z" />
<glyph unicode="Q" horiz-adv-x="1613" d="M1462.5 427q-98.5 -194 -274.5 -306l239 -367h-423l-138 244q-76 -12 -159 -12q-182 0 -320.5 75.5t-214.5 213t-76 315.5q0 252 108.5 449.5t302 308t439.5 110.5q184 0 323.5 -74.5t215.5 -211t76 -312.5q0 -239 -98.5 -433zM528 394q82 -85 232 -85q135 0 237.5 70 t158.5 187.5t56 254.5q0 147 -81.5 231.5t-229.5 84.5q-135 0 -238.5 -70t-160 -185.5t-56.5 -254.5q0 -148 82 -233z" />
<glyph unicode="R" horiz-adv-x="1335" d="M1204 1336.5q117 -101.5 117 -263.5q0 -47 -8 -88q-25 -143 -125.5 -256t-267.5 -160l231 -569h-395l-203 543h-84l-96 -543h-350l253 1438h588q223 0 340 -101.5zM958 1014q0 66 -42 101.5t-123 35.5h-218l-63 -360h217q96 0 152.5 47t72.5 133q4 33 4 43z" />
<glyph unicode="S" horiz-adv-x="1273" d="M214 87q-146 101 -146 288q0 18 4 55h364q-6 -78 37 -123t131 -45q80 0 126 35t46 98q0 66 -58.5 107t-180.5 92q-119 49 -194 93t-130 120t-55 190q-2 141 69.5 246t198.5 160t291 55q147 0 262 -46t178.5 -133t63.5 -206q0 -31 -2 -45h-373q2 8 2 25q0 57 -40 93 t-110 36q-74 0 -120 -36t-46 -97t57.5 -103.5t178.5 -97.5t197.5 -102.5t132 -126t55.5 -193.5q0 -127 -67.5 -227.5t-194.5 -156.5t-297 -56q-234 0 -380 101z" />
<glyph unicode="T" horiz-adv-x="1210" d="M1311 1438l-47 -277h-383l-205 -1161h-350l204 1161h-380l49 277h1112z" />
<glyph unicode="U" horiz-adv-x="1443" d="M621 1438l-152 -858q-8 -53 -8 -74q0 -94 53 -144.5t158 -50.5q123 0 200.5 70t100.5 199l151 858h351l-152 -858q-35 -195 -138.5 -329t-252 -199.5t-322.5 -65.5q-225 0 -363 116.5t-138 337.5q0 66 12 140l149 858h351z" />
<glyph unicode="V" horiz-adv-x="1495" d="M541 1438l166 -1086l546 1086h373l-764 -1438h-438l-256 1438h373z" />
<glyph unicode="W" horiz-adv-x="2154" d="M2255 1438l-629 -1438h-424l-63 944l-404 -944h-424l-110 1438h374l23 -1047l440 1047h387l62 -1041l391 1041h377z" />
<glyph unicode="X" horiz-adv-x="1464" d="M961 713l350 -713h-408l-215 440l-336 -440h-397l590 731l-346 707h407l213 -434l330 434h397z" />
<glyph unicode="Y" horiz-adv-x="1374" d="M1509 1438l-665 -963l-86 -475h-350l86 475l-330 963h397l172 -600l383 600h393z" />
<glyph unicode="Z" horiz-adv-x="1220" d="M446 287h619l-51 -287h-1016l47 266l770 885h-614l51 287h1016l-47 -267z" />
<glyph unicode="[" horiz-adv-x="1044" d="M1087 1880l-49 -283h-286l-306 -1730h287l-51 -285h-614l405 2298h614z" />
<glyph unicode="\" horiz-adv-x="1155" d="M492 -383l-99 2329h338l98 -2329h-337z" />
<glyph unicode="]" horiz-adv-x="1044" d="M623 -428h-615l49 285h287l305 1730h-284l49 283h614z" />
<glyph unicode="^" horiz-adv-x="1452" d="M371 338h-353l691 1104h340l299 -1104h-355l-186 698z" />
<glyph unicode="_" horiz-adv-x="1597" d="M1325 -84l-57 -336h-1270l57 336h1270z" />
<glyph unicode="`" horiz-adv-x="595" d="M670 1462l-45 -241l-455 206l47 273z" />
<glyph unicode="a" d="M176 883q90 133 217 204.5t269 71.5q121 0 202.5 -49t118.5 -129l29 162h350l-203 -1143h-350l31 162q-66 -80 -166.5 -129t-220.5 -49q-121 0 -214.5 55t-144.5 156.5t-51 238.5q0 66 12 139q31 177 121 310zM918 639q0 100 -58.5 157.5t-148.5 57.5 q-104 0 -190.5 -74.5t-108.5 -206.5q-6 -37 -6 -67q0 -100 58 -158.5t146 -58.5q104 0 190.5 75.5t110.5 206.5q7 37 7 68z" />
<glyph unicode="b" d="M710.5 1110q100.5 49 219.5 49q184 0 297.5 -119.5t113.5 -326.5q0 -66 -12 -140q-31 -176 -121 -310t-217 -206.5t-268 -72.5q-121 0 -203 48t-119 128l-28 -160h-350l268 1516h350l-96 -535q65 80 165.5 129zM981 637q0 102 -58.5 159.5t-148.5 57.5q-104 0 -190 -76 t-111 -207q-6 -37 -6 -67q0 -100 57.5 -157.5t147.5 -57.5q104 0 191 76.5t112 207.5q6 35 6 64z" />
<glyph unicode="c" horiz-adv-x="1239" d="M182.5 883q96.5 133 238.5 204.5t310 71.5q215 0 340 -112.5t133 -317.5h-373q-23 131 -159 131q-96 0 -166 -74.5t-94 -214.5q-8 -43 -9 -90q0 -96 45.5 -147t122.5 -51q135 0 203 131h375q-80 -201 -246 -315.5t-379 -114.5q-221 0 -351 121.5t-130 332.5q0 63 12 133 q31 179 127.5 312z" />
<glyph unicode="d" d="M176 883q90 133 217 204.5t269 71.5q113 0 197.5 -47t123.5 -127l94 531h350l-268 -1516h-350l29 164q-66 -82 -164.5 -131t-218.5 -49q-121 0 -214.5 55t-145.5 157.5t-52 239.5q0 63 12 137q31 177 121 310zM918 639q0 100 -58.5 157.5t-148.5 57.5 q-104 0 -190.5 -74.5t-108.5 -206.5q-6 -37 -6 -67q0 -100 58 -158.5t146 -58.5q104 0 190.5 75.5t110.5 206.5q7 37 7 68z" />
<glyph unicode="e" horiz-adv-x="1261" d="M1086.5 1039.5q130.5 -119.5 130.5 -326.5q0 -68 -11 -121q-8 -47 -24 -100h-793q-2 -12 -2 -39q0 -90 49 -137.5t131 -47.5q131 0 201 111h373q-74 -174 -240 -284.5t-373 -110.5q-221 0 -353 122.5t-132 333.5q0 63 12 131q31 178 127.5 311.5t239.5 205t313 71.5 q221 0 351.5 -119.5zM866 709q0 82 -51 126t-135 44q-90 0 -158.5 -54.5t-99.5 -154.5h440q4 29 4 39z" />
<glyph unicode="f" horiz-adv-x="737" d="M675 1278q-46 -35 -63 -125l-2 -10h189l-51 -291h-189l-149 -852h-353l150 852h-127l51 291h127l6 33q39 211 179.5 320.5t373.5 109.5q37 0 55 -2l-51 -297q-100 6 -146 -29z" />
<glyph unicode="g" d="M866 1110q84 -49 117 -129l29 162h350l-201 -1141q-29 -158 -113.5 -286t-227 -203.5t-331.5 -75.5q-254 0 -391 119.5t-123 324.5h347q6 -66 60 -103.5t144 -37.5q109 0 184.5 62.5t100.5 199.5l29 162q-66 -80 -165.5 -130t-219.5 -50q-121 0 -214.5 55t-145.5 157.5 t-52 239.5q0 63 12 137q31 176 121 309.5t217 205t269 71.5q120 0 204 -49zM918 639q0 100 -58.5 157.5t-148.5 57.5q-104 0 -190.5 -74.5t-108.5 -206.5q-6 -37 -6 -67q0 -100 58 -158.5t146 -58.5q104 0 190.5 75.5t110.5 206.5q7 37 7 68z" />
<glyph unicode="h" horiz-adv-x="1380" d="M1193 1059q97 -96 97 -268q0 -57 -12 -123l-119 -668h-348l111 621q6 35 6 61q0 86 -48.5 133t-134.5 47q-102 0 -171.5 -63.5t-90.5 -177.5v4l-110 -625h-350l268 1516h350l-92 -525q68 76 166 120t213 44q168 0 265 -96z" />
<glyph unicode="i" horiz-adv-x="604" d="M292 1306q-48 44 -48 111q0 92 71.5 157.5t173.5 65.5q82 0 129.5 -44t47.5 -113q0 -90 -72 -155.5t-172 -65.5q-82 0 -130 44zM573 1143l-200 -1143h-350l200 1143h350z" />
<glyph unicode="j" horiz-adv-x="602" d="M290 1306q-48 44 -48 111q0 92 71.5 157.5t173.5 65.5q80 0 128.5 -43t48.5 -110q0 -92 -71 -158.5t-173 -66.5q-82 0 -130 44zM346 -147q-68 -397 -473 -398h-137l53 297h84q57 0 85 22.5t38 73.5l227 1295h350z" />
<glyph unicode="k" horiz-adv-x="1265" d="M776 569l379 -569h-434l-264 477l-84 -477h-350l268 1516h350l-147 -836l426 463h432z" />
<glyph unicode="l" horiz-adv-x="604" d="M641 1516l-268 -1516h-350l268 1516h350z" />
<glyph unicode="m" horiz-adv-x="2168" d="M1973.5 1058q103.5 -97 103.5 -272q0 -53 -13 -118l-118 -668h-349l111 621q4 20 4 55q0 86 -48 131t-134 45q-102 0 -172 -60.5t-88 -170.5l-111 -621h-348l111 621q4 20 4 55q0 86 -48.5 131t-134.5 45q-102 0 -171.5 -60.5t-88.5 -170.5v10l-110 -631h-350l200 1143 h350l-24 -146q66 74 159 116t201 42q131 0 222.5 -55.5t130.5 -159.5q76 96 188.5 155.5t235.5 59.5q184 0 287.5 -97z" />
<glyph unicode="n" horiz-adv-x="1380" d="M1192 1059q98 -96 98 -268q0 -57 -12 -123l-119 -668h-348l111 621q6 35 6 61q0 86 -48.5 133t-134.5 47q-102 0 -171.5 -63.5t-90.5 -177.5v10l-110 -631h-350l200 1143h350l-26 -154q68 76 165 121t210 45q172 0 270 -96z" />
<glyph unicode="o" horiz-adv-x="1304" d="M282.5 43q-114.5 59 -177 167.5t-62.5 252.5q0 195 92 354.5t254 250.5t361 91q147 0 262.5 -60.5t179 -169t63.5 -251.5q0 -197 -93 -355.5t-256 -248.5t-361 -90q-148 0 -262.5 59zM748.5 337q68.5 52 106.5 135t38 173q0 102 -55.5 157.5t-139.5 55.5 q-88 0 -154.5 -52t-103.5 -136t-37 -176q0 -100 53.5 -154.5t137.5 -54.5q86 0 154.5 52z" />
<glyph unicode="p" d="M709.5 1110q99.5 49 220.5 49q184 0 297.5 -120.5t113.5 -327.5q0 -63 -12 -138q-31 -176 -121 -310t-217 -206.5t-268 -72.5q-119 0 -201 49t-121 127l-125 -705h-350l297 1688h350l-28 -162q65 80 164.5 129zM981 637q0 102 -58.5 159.5t-148.5 57.5q-104 0 -190 -76 t-111 -207q-6 -37 -6 -67q0 -100 57.5 -157.5t147.5 -57.5q104 0 191 76.5t112 207.5q6 35 6 64z" />
<glyph unicode="q" d="M177 872.5q93 133.5 226.5 208t274.5 74.5q111 0 188.5 -38t122.5 -105l23 131h350l-297 -1688h-350l121 688q-72 -72 -165 -114.5t-202 -42.5q-123 0 -220 57t-152.5 160.5t-55.5 240.5q0 61 12 125q31 170 124 303.5zM918 637q0 104 -60.5 159.5t-146.5 55.5 q-61 0 -125 -32t-112 -95t-64 -156q-6 -33 -7 -63q0 -104 61.5 -160.5t145.5 -56.5q61 0 125 31.5t112 95t64 155.5q7 35 7 66z" />
<glyph unicode="r" horiz-adv-x="876" d="M719.5 1096.5q103.5 58.5 216.5 58.5l-66 -371h-96q-131 0 -206.5 -56t-100.5 -198l-94 -530h-350l200 1143h350l-36 -207q79 102 182.5 160.5z" />
<glyph unicode="s" horiz-adv-x="1142" d="M254.5 27q-107.5 43 -168.5 119.5t-61 177.5q0 14 4 51h338q-4 -63 37.5 -101t119.5 -38q66 0 109 24.5t43 69.5q0 43 -46 68.5t-153 62.5q-111 37 -185.5 72.5t-127.5 103.5t-53 170q0 100 59 181t166.5 126t249.5 45q141 0 245.5 -46t162 -128t57.5 -184l-2 -31h-318 q4 61 -37 98t-116 37q-59 0 -97.5 -24.5t-38.5 -67.5q0 -45 50.5 -74.5t156.5 -66.5q111 -37 183.5 -73t125 -100.5t52.5 -160.5q0 -111 -66.5 -190.5t-182.5 -121.5t-263 -42q-136 0 -243.5 43z" />
<glyph unicode="t" horiz-adv-x="831" d="M498 393q-2 -10 -2 -26q0 -37 21.5 -53.5t70.5 -16.5h125l-54 -297h-178q-344 0 -344 289q0 43 10 108l82 455h-139l51 291h140l49 278h350l-49 -278h229l-51 -291h-229z" />
<glyph unicode="u" horiz-adv-x="1380" d="M1352 1143l-201 -1143h-350l26 156q-68 -76 -165 -122t-207 -46q-172 0 -270.5 97t-98.5 271q0 66 10 119l119 668h348l-108 -621q-6 -33 -6 -63q0 -86 48 -132t134 -46q98 0 166.5 58t91.5 167l112 637h351z" />
<glyph unicode="v" horiz-adv-x="1282" d="M594 328l393 815h375l-608 -1143h-435l-202 1143h372z" />
<glyph unicode="w" horiz-adv-x="1773" d="M1866 1143l-512 -1143h-387l-49 741l-318 -741h-385l-109 1143h351l16 -817l338 817h371l51 -817l303 817h330z" />
<glyph unicode="x" horiz-adv-x="1204" d="M799 565l293 -565h-394l-163 315l-240 -315h-379l479 584l-289 559h394l164 -318l239 318h379z" />
<glyph unicode="y" horiz-adv-x="1294" d="M485 1143l140 -715l389 715h379l-1014 -1686h-377l365 582l-271 1104h389z" />
<glyph unicode="z" horiz-adv-x="1015" d="M401 289h498l-53 -289h-887l51 279l576 575h-471l51 289h870l-49 -279z" />
<glyph unicode="{" horiz-adv-x="1021" d="M238 860q199 8 223 158q12 63 20 231q8 178 23 254q31 174 153.5 271.5t300.5 97.5h148l-51 -287h-78q-66 0 -101.5 -28.5t-46.5 -88.5q-6 -37 -11 -102.5t-7 -89.5q-12 -178 -29 -272q-18 -113 -84.5 -187t-179.5 -94l-2 -4q174 -35 174 -195q0 -49 -16.5 -124.5 t-55.5 -225.5q-53 -195 -53 -240q0 -80 107 -79h80l-52 -287h-147q-156 0 -245 74.5t-89 214.5q0 59 21.5 147t62.5 221q23 74 40 139.5t17 94.5q0 57 -40.5 88t-131.5 35z" />
<glyph unicode="|" horiz-adv-x="595" d="M324 -264h-351l340 1933h351z" />
<glyph unicode="}" horiz-adv-x="1021" d="M614 424q-10 -61 -18 -215q-8 -174 -25 -270q-31 -176 -153.5 -273.5t-300.5 -97.5h-148l51 287h78q66 0 100.5 29.5t45.5 88.5q8 41 13 112t7 91q12 188 27 260q20 115 86.5 187.5t179.5 95.5l2 4q-176 35 -176 211q0 33 6 70q16 86 64 249q47 168 53 215q4 25 4 35 q0 41 -25.5 61.5t-81.5 20.5h-79l51 287h147q156 0 245 -75t89 -212q0 -43 -8 -82q-14 -78 -70 -262q-6 -20 -28.5 -96t-30.5 -127q-4 -25 -4 -35q0 -115 172 -123l-49 -278q-197 -8 -224 -158z" />
<glyph unicode="~" horiz-adv-x="1302" d="M229 761.5q125 108.5 285 108.5q68 0 116 -19.5t109 -57.5q47 -29 79 -43.5t67 -14.5q111 0 151 135h260q-76 -227 -201.5 -335.5t-285.5 -108.5q-66 0 -114 19.5t-109 58.5q-47 29 -79 43t-69 14q-109 0 -153 -135h-258q77 227 202 335.5z" />
<glyph unicode="&#xa1;" horiz-adv-x="841" d="M650 1127q48 -44 48 -111q0 -94 -70.5 -159.5t-174.5 -65.5q-80 0 -127 44t-47 113q0 92 70.5 157.5t170.5 65.5q82 0 130 -44zM70 -334l215 981h297l-133 -981h-379z" />
<glyph unicode="&#xa2;" horiz-adv-x="1292" d="M500.5 709.5q-70.5 -66.5 -92.5 -185.5q-6 -37 -7 -67q0 -88 48.5 -136.5t138.5 -48.5q72 0 126 31t79 86h323q-43 -168 -185.5 -274.5t-330.5 -122.5l-29 -166h-131l29 166q-197 16 -301.5 125.5t-104.5 290.5q0 49 11 116q41 229 194.5 370.5t388.5 162.5l29 166h131 l-29 -166q168 -16 272.5 -111.5t104.5 -247.5q0 -27 -2 -39h-321q-18 117 -164 117q-107 0 -177.5 -66.5z" />
<glyph unicode="&#xa3;" horiz-adv-x="1357" d="M961 1065q2 12 2 39q0 139 -144 139q-80 0 -134 -50t-71 -149q-6 -37 -6 -75q0 -47 13 -146h370l-41 -235h-321v-6q-14 -80 -62.5 -166t-130.5 -150h711l-47 -274h-1045l-18 172q113 86 174 182t86 238v4h-221l41 235h164q-6 49 -7 109q0 68 13 147q37 211 195.5 331 t379.5 120q213 0 318.5 -104.5t105.5 -278.5q0 -39 -6 -82h-319z" />
<glyph unicode="&#xa4;" horiz-adv-x="1181" d="M1020 995q39 -66 39 -149q0 -35 -6 -72q-20 -127 -111 -219l92 -111l-160 -137l-108 131q-94 -37 -209 -37q-113 0 -195 37l-153 -131l-111 137l131 113q-35 63 -34 145q0 35 6 72q25 133 108 219l-94 115l160 137l112 -137q94 35 203 35q102 0 191 -33l159 135l111 -137 zM467 731q0 -63 36 -95t91 -32q66 0 119 43t67 125q4 33 4 45q0 63 -35.5 95t-93.5 32q-66 0 -118 -44t-66 -128q-4 -29 -4 -41z" />
<glyph unicode="&#xa5;" horiz-adv-x="1374" d="M1116 870h205l-41 -235l-328 -2l-86 -125h391l-40 -234h-410l-49 -274h-350l49 274h-410l41 234h395l-43 125l-329 2l41 235h206l-194 568h397l166 -637l389 637h393z" />
<glyph unicode="&#xa6;" horiz-adv-x="780" d="M406 1669h350l-148 -840h-352zM414 -264h-351l150 839h350z" />
<glyph unicode="&#xa7;" horiz-adv-x="1202" d="M807 1071q2 12 2 33q0 109 -96 108q-115 0 -133 -100q-2 -8 -2 -22q0 -51 58 -95.5t216 -115.5q137 -63 207.5 -141.5t70.5 -178.5q0 -29 -6 -59q-16 -100 -80.5 -177t-189.5 -130q98 -98 98 -222q0 -31 -6 -63q-18 -104 -89 -188.5t-185.5 -131.5t-261.5 -47 q-186 0 -291 88t-105 240q0 18 4 59h347q-2 -12 -3 -32q0 -109 97 -109q55 0 89 24.5t42 75.5q2 8 2 23q0 51 -58.5 94t-214.5 117q-137 63 -207.5 142t-70.5 181q0 37 4 56q43 225 274 307q-100 98 -100 227q0 37 4 58q18 104 89 188t186.5 131t263.5 47q188 0 291.5 -88 t103.5 -242q0 -16 -4 -57h-346zM471 604q-57 -55 -57 -133q0 -57 39 -94t106 -37q78 0 132 46t65 114q4 25 4 35q0 55 -38 89.5t-106 34.5q-88 0 -145 -55z" />
<glyph unicode="&#xa8;" horiz-adv-x="751" d="M200 1304.5q-36 34.5 -36 88.5q0 74 54 126t126 52q57 0 92 -35t35 -88q0 -74 -54.5 -126t-125.5 -52q-55 0 -91 34.5zM609 1304.5q-36 34.5 -36 88.5q0 74 54.5 126t126.5 52q57 0 92 -35t35 -88q0 -74 -54.5 -126t-126.5 -52q-55 0 -91 34.5z" />
<glyph unicode="&#xa9;" horiz-adv-x="1595" d="M1274 1385.5q137 -72.5 211 -203.5t74 -305q0 -80 -15 -154q-37 -213 -157.5 -381t-302 -262t-392.5 -94q-184 0 -321.5 72.5t-211 204.5t-73.5 306q0 80 14 154q39 213 160 381t301 261t391 93q185 0 322 -72.5zM601.5 1269q-148.5 -77 -246 -217.5t-130.5 -328.5 q-12 -74 -12 -143q0 -223 131 -352.5t369 -129.5q182 0 330.5 78t247 219.5t128.5 327.5q14 90 15 147q0 221 -132.5 348.5t-367.5 127.5q-184 0 -332.5 -77zM660.5 1127.5q-113.5 -56.5 -190.5 -161t-101 -243.5q-8 -47 -9 -98q0 -168 104.5 -265.5t278.5 -97.5 q162 0 295 92t191 244h-299q-53 -100 -156 -100q-61 0 -95 40t-34 115q0 33 6 70q18 111 73.5 168t129.5 57q53 0 83 -26.5t36 -73.5h301q-2 156 -103.5 246t-265.5 90q-131 0 -244.5 -56.5z" />
<glyph unicode="&#xaa;" horiz-adv-x="960" d="M219.5 1282q59.5 84 144.5 129t181 45q168 0 221 -125l20 115h263l-125 -721h-265l21 113q-100 -123 -264 -123q-127 0 -206 77.5t-79 208.5q0 45 8 84q21 113 80.5 197zM690 1214.5q-37 32.5 -94 32.5q-74 0 -131 -53t-57 -145q0 -61 36.5 -94t94.5 -33q74 0 131 53 t57 145q0 62 -37 94.5z" />
<glyph unicode="&#xab;" horiz-adv-x="1140" d="M203 246l-109 358l236 359h323l-241 -359l114 -358h-323zM664 246l-109 358l236 359h323l-242 -359l115 -358h-323z" />
<glyph unicode="&#xac;" horiz-adv-x="1581" d="M1516 905l-95 -536h-350l47 270h-1046l47 266h1397z" />
<glyph unicode="&#xad;" horiz-adv-x="1187" d="M1057 864l-53 -291h-902l54 291h901z" />
<glyph unicode="&#xae;" horiz-adv-x="1052" d="M957.5 1363q101.5 -97 101.5 -257q0 -47 -8 -88q-23 -127 -97.5 -228.5t-185.5 -158t-240 -56.5q-170 0 -273 97.5t-103 255.5q0 49 8 90q23 129 97.5 229.5t186 156.5t240.5 56q172 0 273.5 -97zM932 1092q0 117 -70.5 185.5t-197.5 68.5q-147 0 -250 -90.5t-129 -237.5 q-6 -37 -6 -70q0 -119 70.5 -188.5t197.5 -69.5q145 0 249.5 91t129.5 237q6 37 6 74zM785.5 1210.5q35.5 -30.5 35.5 -84.5q0 -51 -27.5 -91t-76.5 -60l74 -168h-173l-57 151h-2l-27 -151h-151l78 434h227q64 0 99.5 -30.5zM575 1063h50q29 0 34 27v4q0 20 -24 20h-51z" />
<glyph unicode="&#xaf;" horiz-adv-x="860" d="M1006 1528l-43 -242h-820l43 242h820z" />
<glyph unicode="&#xb0;" horiz-adv-x="948" d="M304 1352.5q134 99.5 325 99.5q168 0 265 -79t97 -218q0 -35 -6 -72q-31 -170 -164 -271t-321 -101q-168 0 -267.5 80.5t-99.5 220.5q0 35 6 71q31 170 165 269.5zM717 1128q0 68 -35 102t-88 34q-61 0 -114.5 -47.5t-69.5 -135.5q-4 -33 -4 -45q0 -66 36.5 -100.5 t89.5 -34.5q61 0 113.5 46t67.5 134q4 33 4 47z" />
<glyph unicode="&#xb1;" horiz-adv-x="1288" d="M838 729l-33 -190h354l-57 -316h-1045l58 316h354l33 190h-355l56 315h354l41 238h336l-41 -238h354l-55 -315h-354z" />
<glyph unicode="&#xb2;" horiz-adv-x="784" d="M773.5 1406q66.5 -56 66.5 -138q0 -23 -2 -33q-14 -74 -80 -129t-207 -119l-135 -61h356l-37 -205h-633l35 197l279 151q125 72 139 148l2 14q0 20 -11 31.5t-32 11.5q-55 0 -74 -74h-262q27 117 132.5 189.5t262.5 72.5q134 0 200.5 -56z" />
<glyph unicode="&#xb3;" horiz-adv-x="765" d="M275.5 1390.5q99.5 71.5 265.5 71.5q129 0 204.5 -51t75.5 -135q0 -74 -46 -121t-124 -63l-2 -7q127 -35 127 -135q0 -109 -103.5 -173t-262.5 -64q-313 0 -314 215q0 23 2 35h271q-6 -63 57 -64q33 0 55.5 20.5t22.5 61.5q0 27 -18.5 40t-53.5 13h-67l18 115h57 q80 0 92 68q10 59 -51 59q-31 0 -49 -15.5t-29 -48.5h-249q22 107 121.5 178.5z" />
<glyph unicode="&#xb4;" horiz-adv-x="534" d="M664 1427l-533 -206l43 241l537 238z" />
<glyph unicode="&#xb5;" horiz-adv-x="1443" d="M1389 1143l-203 -1143h-350l28 166q-63 -84 -160.5 -131t-214.5 -47q-47 0 -90 16l-96 -549h-348l297 1688h348l-111 -621q-4 -20 -4 -55q0 -86 48.5 -131t134.5 -45q102 0 171.5 60.5t88.5 170.5v-4l110 625h351z" />
<glyph unicode="&#xb6;" horiz-adv-x="1449" d="M1192 0h-289l207 1171h-127l-207 -1171h-289l101 559h-47q-213 0 -316.5 97.5t-103.5 252.5q0 31 8 88q23 119 91.5 219.5t189 161t284.5 60.5h752z" />
<glyph unicode="&#xb7;" horiz-adv-x="612" d="M74 499q-48 44 -48 111q0 94 70.5 160t175.5 66q80 0 127 -44.5t47 -113.5q0 -92 -70.5 -157.5t-171.5 -65.5q-82 0 -130 44z" />
<glyph unicode="&#xb8;" horiz-adv-x="641" d="M398.5 -122q66.5 -46 66.5 -138q0 -31 -4 -49q-20 -117 -114.5 -177.5t-211.5 -60.5h-315l35 193h266q41 0 64.5 12t27.5 41q6 29 -12.5 40t-59.5 11h-145l47 264h211l-16 -90q94 0 160.5 -46z" />
<glyph unicode="&#xb9;" horiz-adv-x="509" d="M156 1239l34 203h388l-127 -721h-265l93 518h-123z" />
<glyph unicode="&#xba;" horiz-adv-x="937" d="M300 1349.5q132 102.5 318 102.5q166 0 263.5 -82t97.5 -217q0 -33 -6 -70q-18 -109 -85 -192.5t-170.5 -131.5t-225.5 -48q-166 0 -262.5 83t-96.5 220q0 33 6 69q29 164 161 266.5zM709 1120q0 63 -36 98t-89 35q-63 0 -112.5 -44t-63.5 -128q-4 -29 -5 -41 q0 -61 34 -95t89 -34q63 0 113.5 44t65.5 126q4 29 4 39z" />
<glyph unicode="&#xbb;" horiz-adv-x="1140" d="M283 604l-115 359h324l108 -359l-235 -358h-324zM743 604l-114 359h323l109 -359l-236 -358h-323z" />
<glyph unicode="&#xbc;" horiz-adv-x="1609" d="M197 1239l34 203h387l-126 -721h-265l92 518h-122zM1456 1438l-1042 -1438h-338l1044 1438h336zM1468 127h-82l-24 -127h-264l24 127h-399l22 139l379 455h367l-78 -445h80zM1206 547l-205 -264h160z" />
<glyph unicode="&#xbd;" horiz-adv-x="1681" d="M1458 1442l-1044 -1442h-338l1044 1442h338zM319 1239h-122l34 203h387l-126 -721h-265zM1610.5 683q66.5 -56 66.5 -138q0 -23 -2 -33q-14 -74 -79.5 -129t-206.5 -119l-136 -61h357l-37 -205h-633l35 197l278 151q125 72 140 148l2 14q0 20 -11.5 31.5t-31.5 11.5 q-55 0 -74 -74h-262q27 117 132 189.5t263 72.5q133 0 199.5 -56z" />
<glyph unicode="&#xbe;" horiz-adv-x="1824" d="M347 1390.5q99 71.5 265 71.5q129 0 205 -51t76 -135q0 -74 -46 -121t-124 -63l-2 -7q127 -35 127 -135q0 -109 -103.5 -173t-263.5 -64q-313 0 -313 215q0 23 2 35h270q-6 -63 58 -64q33 0 55 20.5t22 61.5q0 27 -18 40t-53 13h-68l19 115h57q80 0 92 68q10 59 -51 59 q-31 0 -49.5 -15.5t-28.5 -48.5h-250q23 107 122 178.5zM1694 1442l-1045 -1442h-336l1043 1442h338zM1702 127h-80l-25 -127h-262l23 127h-402l25 139l358 455h387l-79 -445h82zM1448 567l-213 -291h160z" />
<glyph unicode="&#xbf;" horiz-adv-x="1101" d="M925 1127q48 -44 48 -111q0 -94 -71 -159.5t-175 -65.5q-80 0 -127 44t-47 113q0 92 70.5 157.5t171.5 65.5q82 0 130 -44zM85 -272q-112 90 -112 256q0 49 9 92q35 193 180 300t352 109l37 154h307l-55 -381h-123q-160 0 -251 -40t-107 -144q-2 -10 -3 -31q0 -55 33 -87 t92 -32q74 0 122 42t61 114h329q-20 -125 -94 -225.5t-195.5 -158.5t-279.5 -58q-190 0 -302 90z" />
<glyph unicode="&#xc0;" horiz-adv-x="1509" d="M963 254h-537l-131 -254h-367l774 1438h406l266 -1438h-370zM922 520l-84 533l-275 -533h359zM1202 1761l-45 -241l-455 206l47 273z" />
<glyph unicode="&#xc1;" horiz-adv-x="1509" d="M963 254h-537l-131 -254h-367l774 1438h406l266 -1438h-370zM922 520l-84 533l-275 -533h359zM1196 1726l-533 -206l43 241l537 238z" />
<glyph unicode="&#xc2;" horiz-adv-x="1509" d="M963 254h-537l-131 -254h-367l774 1438h406l266 -1438h-370zM922 520l-84 533l-275 -533h359zM952 1694l-350 -178l43 241l348 172l287 -172l-43 -241z" />
<glyph unicode="&#xc3;" horiz-adv-x="1509" d="M963 254h-537l-131 -254h-367l774 1438h406l266 -1438h-370zM922 520l-84 533l-275 -533h359zM852 1851q45 0 77.5 -13t73.5 -40q31 -20 53.5 -29.5t47.5 -9.5q78 0 104 92h180q-100 -303 -335 -303q-45 0 -78 13.5t-74 40.5q-31 20 -53.5 29t-46.5 9q-74 0 -107 -92 h-178q100 303 336 303z" />
<glyph unicode="&#xc4;" horiz-adv-x="1509" d="M963 254h-537l-131 -254h-367l774 1438h406l266 -1438h-370zM922 520l-84 533l-275 -533h359zM632 1603.5q-36 34.5 -36 88.5q0 74 54 126t126 52q57 0 92 -35t35 -88q0 -74 -54.5 -126t-125.5 -52q-55 0 -91 34.5zM1041 1603.5q-36 34.5 -36 88.5q0 74 54.5 126 t126.5 52q57 0 92 -35t35 -88q0 -74 -54.5 -126t-126.5 -52q-55 0 -91 34.5z" />
<glyph unicode="&#xc5;" horiz-adv-x="1509" d="M963 254h-537l-131 -254h-367l774 1438h406l266 -1438h-370zM922 520l-84 533l-275 -533h359zM820.5 1953.5q82.5 67.5 189.5 67.5q92 0 150.5 -52t58.5 -142q0 -88 -41 -156.5t-109.5 -106.5t-146.5 -38q-92 0 -150.5 53t-58.5 143q0 14 4 52q21 112 103.5 179.5z M1043.5 1852.5q-23.5 21.5 -60.5 21.5q-47 0 -82.5 -34t-35.5 -85q0 -37 23.5 -59.5t60.5 -22.5q47 0 82.5 35t35.5 88q0 35 -23.5 56.5z" />
<glyph unicode="&#xc6;" horiz-adv-x="1955" d="M1438 1161l-54 -295h459l-45 -266h-459l-57 -324h518l-49 -276h-868l43 242h-473l-164 -242h-381l991 1438h1106l-49 -277h-518zM973 508l117 670l-455 -670h338z" />
<glyph unicode="&#xc7;" horiz-adv-x="1560" d="M925 356q87 47 146 136h385q-90 -207 -264 -337t-395 -159l-15 -80q94 0 161 -46t67 -138q0 -31 -4 -49q-20 -117 -114.5 -177.5t-211.5 -60.5h-315l34 193h267q41 0 64.5 12t27.5 41q6 29 -12.5 40t-59.5 11h-145l45 254q-236 27 -372 181.5t-136 391.5q0 59 14 152 q37 213 159 380t302 260t389 93q256 0 415 -135t179 -369h-385q-27 88 -97.5 134t-172.5 46q-162 0 -281 -111.5t-151 -297.5q-10 -57 -11 -100q0 -143 80 -227.5t219 -84.5q101 0 188 47z" />
<glyph unicode="&#xc8;" horiz-adv-x="1107" d="M578 1161l-52 -299h469l-47 -264h-469l-57 -322h530l-49 -276h-880l253 1438h881l-49 -277h-530zM1006 1761l-45 -241l-455 206l47 273z" />
<glyph unicode="&#xc9;" horiz-adv-x="1107" d="M578 1161l-52 -299h469l-47 -264h-469l-57 -322h530l-49 -276h-880l253 1438h881l-49 -277h-530zM1000 1726l-533 -206l43 241l537 238z" />
<glyph unicode="&#xca;" horiz-adv-x="1107" d="M578 1161l-52 -299h469l-47 -264h-469l-57 -322h530l-49 -276h-880l253 1438h881l-49 -277h-530zM753 1694l-350 -178l43 241l348 172l287 -172l-43 -241z" />
<glyph unicode="&#xcb;" horiz-adv-x="1107" d="M578 1161l-52 -299h469l-47 -264h-469l-57 -322h530l-49 -276h-880l253 1438h881l-49 -277h-530zM436 1603.5q-36 34.5 -36 88.5q0 74 54 126t126 52q57 0 92 -35t35 -88q0 -74 -54.5 -126t-125.5 -52q-55 0 -91 34.5zM845 1603.5q-36 34.5 -36 88.5q0 74 54.5 126 t126.5 52q57 0 92 -35t35 -88q0 -74 -54.5 -126t-126.5 -52q-55 0 -91 34.5z" />
<glyph unicode="&#xcc;" horiz-adv-x="604" d="M627 1438l-254 -1438h-350l253 1438h351zM750 1761l-45 -241l-455 206l47 273z" />
<glyph unicode="&#xcd;" horiz-adv-x="604" d="M627 1438l-254 -1438h-350l253 1438h351zM744 1726l-533 -206l43 241l537 238z" />
<glyph unicode="&#xce;" horiz-adv-x="604" d="M627 1438l-254 -1438h-350l253 1438h351zM499 1694l-350 -178l43 241l348 172l287 -172l-43 -241z" />
<glyph unicode="&#xcf;" horiz-adv-x="604" d="M627 1438l-254 -1438h-350l253 1438h351zM180 1603.5q-36 34.5 -36 88.5q0 74 54 126t126 52q57 0 92 -35t35 -88q0 -74 -54.5 -126t-125.5 -52q-55 0 -91 34.5zM589 1603.5q-36 34.5 -36 88.5q0 74 54.5 126t126.5 52q57 0 92 -35t35 -88q0 -74 -54.5 -126t-126.5 -52 q-55 0 -91 34.5z" />
<glyph unicode="&#xd0;" horiz-adv-x="1499" d="M1170.5 1367q144.5 -71 220 -199t75.5 -300q0 -78 -14 -149q-37 -211 -157.5 -375t-308 -254t-415.5 -90h-538l100 573h-127l53 291h127l101 574h538q201 0 345.5 -71zM1106 821q0 152 -92 235t-262 83h-166l-49 -275h313l-51 -291h-312l-49 -274h166q199 0 329 110.5 t163 309.5q10 61 10 102z" />
<glyph unicode="&#xd1;" horiz-adv-x="1540" d="M1309 0h-351l-428 887l-157 -887h-350l253 1438h351l428 -891l157 891h351zM866 1851q45 0 77.5 -13t73.5 -40q31 -20 53.5 -29.5t47.5 -9.5q78 0 104 92h180q-100 -303 -335 -303q-45 0 -78 13.5t-74 40.5q-31 20 -53.5 29t-46.5 9q-74 0 -107 -92h-178q100 303 336 303 z" />
<glyph unicode="&#xd2;" horiz-adv-x="1609" d="M386 61.5q-138 75.5 -214 213t-76 315.5q0 252 108.5 449.5t302 308t439.5 110.5q184 0 323.5 -74.5t215.5 -211t76 -312.5q0 -252 -109 -451.5t-303.5 -311t-441.5 -111.5q-183 0 -321 75.5zM997.5 379q102.5 70 158.5 187.5t56 254.5q0 147 -81.5 231.5t-229.5 84.5 q-135 0 -238.5 -70t-160 -185.5t-56.5 -254.5q0 -147 82 -232.5t232 -85.5q135 0 237.5 70zM1250 1769l-45 -241l-455 206l47 273z" />
<glyph unicode="&#xd3;" horiz-adv-x="1609" d="M386 61.5q-138 75.5 -214 213t-76 315.5q0 252 108.5 449.5t302 308t439.5 110.5q184 0 323.5 -74.5t215.5 -211t76 -312.5q0 -252 -109 -451.5t-303.5 -311t-441.5 -111.5q-183 0 -321 75.5zM997.5 379q102.5 70 158.5 187.5t56 254.5q0 147 -81.5 231.5t-229.5 84.5 q-135 0 -238.5 -70t-160 -185.5t-56.5 -254.5q0 -147 82 -232.5t232 -85.5q135 0 237.5 70zM1244 1734l-533 -206l43 241l537 238z" />
<glyph unicode="&#xd4;" horiz-adv-x="1609" d="M386 61.5q-138 75.5 -214 213t-76 315.5q0 252 108.5 449.5t302 308t439.5 110.5q184 0 323.5 -74.5t215.5 -211t76 -312.5q0 -252 -109 -451.5t-303.5 -311t-441.5 -111.5q-183 0 -321 75.5zM997.5 379q102.5 70 158.5 187.5t56 254.5q0 147 -81.5 231.5t-229.5 84.5 q-135 0 -238.5 -70t-160 -185.5t-56.5 -254.5q0 -147 82 -232.5t232 -85.5q135 0 237.5 70zM999 1702l-350 -178l43 241l348 172l287 -172l-43 -241z" />
<glyph unicode="&#xd5;" horiz-adv-x="1609" d="M386 61.5q-138 75.5 -214 213t-76 315.5q0 252 108.5 449.5t302 308t439.5 110.5q184 0 323.5 -74.5t215.5 -211t76 -312.5q0 -252 -109 -451.5t-303.5 -311t-441.5 -111.5q-183 0 -321 75.5zM997.5 379q102.5 70 158.5 187.5t56 254.5q0 147 -81.5 231.5t-229.5 84.5 q-135 0 -238.5 -70t-160 -185.5t-56.5 -254.5q0 -147 82 -232.5t232 -85.5q135 0 237.5 70zM899 1859q45 0 77.5 -13t73.5 -40q31 -20 53.5 -29.5t47.5 -9.5q78 0 104 92h180q-100 -303 -335 -303q-45 0 -78 13.5t-74 40.5q-31 20 -53.5 29t-46.5 9q-74 0 -107 -92h-178 q100 303 336 303z" />
<glyph unicode="&#xd6;" horiz-adv-x="1609" d="M386 61.5q-138 75.5 -214 213t-76 315.5q0 252 108.5 449.5t302 308t439.5 110.5q184 0 323.5 -74.5t215.5 -211t76 -312.5q0 -252 -109 -451.5t-303.5 -311t-441.5 -111.5q-183 0 -321 75.5zM997.5 379q102.5 70 158.5 187.5t56 254.5q0 147 -81.5 231.5t-229.5 84.5 q-135 0 -238.5 -70t-160 -185.5t-56.5 -254.5q0 -147 82 -232.5t232 -85.5q135 0 237.5 70zM679 1611.5q-36 34.5 -36 88.5q0 74 54 126t126 52q57 0 92 -35t35 -88q0 -74 -54.5 -126t-125.5 -52q-55 0 -91 34.5zM1088 1611.5q-36 34.5 -36 88.5q0 74 54.5 126t126.5 52 q57 0 92 -35t35 -88q0 -74 -54.5 -126t-126.5 -52q-55 0 -91 34.5z" />
<glyph unicode="&#xd7;" horiz-adv-x="1304" d="M903 731l236 -287l-271 -227l-233 285l-332 -283l-188 225l331 283l-225 274l271 228l223 -273l319 273l189 -225z" />
<glyph unicode="&#xd8;" horiz-adv-x="1609" d="M1462 1208q96 -147 97 -348q0 -252 -109 -451.5t-303.5 -311t-441.5 -111.5q-125 0 -230.5 36.5t-185.5 104.5l-135 -125h-213l254 234q-100 147 -101 354q0 252 108.5 449.5t302 308t439.5 110.5q258 0 422 -141l137 125h211zM467 487l637 588q-80 61 -205 62 q-135 0 -238.5 -70t-160 -185.5t-56.5 -254.5q0 -77 23 -140zM1188 956l-635 -585q80 -61 205 -62q135 0 237.5 70t158.5 187.5t56 254.5q1 74 -22 135z" />
<glyph unicode="&#xd9;" horiz-adv-x="1443" d="M621 1438l-152 -858q-8 -53 -8 -74q0 -94 53 -144.5t158 -50.5q123 0 200.5 70t100.5 199l151 858h351l-152 -858q-35 -195 -138.5 -329t-252 -199.5t-322.5 -65.5q-225 0 -363 116.5t-138 337.5q0 66 12 140l149 858h351zM1170 1761l-45 -241l-455 206l47 273z" />
<glyph unicode="&#xda;" horiz-adv-x="1443" d="M621 1438l-152 -858q-8 -53 -8 -74q0 -94 53 -144.5t158 -50.5q123 0 200.5 70t100.5 199l151 858h351l-152 -858q-35 -195 -138.5 -329t-252 -199.5t-322.5 -65.5q-225 0 -363 116.5t-138 337.5q0 66 12 140l149 858h351zM1164 1726l-533 -206l43 241l537 238z" />
<glyph unicode="&#xdb;" horiz-adv-x="1443" d="M621 1438l-152 -858q-8 -53 -8 -74q0 -94 53 -144.5t158 -50.5q123 0 200.5 70t100.5 199l151 858h351l-152 -858q-35 -195 -138.5 -329t-252 -199.5t-322.5 -65.5q-225 0 -363 116.5t-138 337.5q0 66 12 140l149 858h351zM919 1694l-350 -178l43 241l348 172l287 -172 l-43 -241z" />
<glyph unicode="&#xdc;" horiz-adv-x="1443" d="M621 1438l-152 -858q-8 -53 -8 -74q0 -94 53 -144.5t158 -50.5q123 0 200.5 70t100.5 199l151 858h351l-152 -858q-35 -195 -138.5 -329t-252 -199.5t-322.5 -65.5q-225 0 -363 116.5t-138 337.5q0 66 12 140l149 858h351zM599 1603.5q-36 34.5 -36 88.5q0 74 54 126 t126 52q57 0 92 -35t35 -88q0 -74 -54.5 -126t-125.5 -52q-55 0 -91 34.5zM1008 1603.5q-36 34.5 -36 88.5q0 74 54.5 126t126.5 52q57 0 92 -35t35 -88q0 -74 -54.5 -126t-126.5 -52q-55 0 -91 34.5z" />
<glyph unicode="&#xdd;" horiz-adv-x="1374" d="M1509 1438l-665 -963l-86 -475h-350l86 475l-330 963h397l172 -600l383 600h393zM1129 1726l-533 -206l43 241l537 238z" />
<glyph unicode="&#xde;" horiz-adv-x="1277" d="M1149 496.5q-76 -101.5 -206 -163t-306 -61.5h-217l-47 -272h-350l253 1438h347l-45 -267h219q225 0 341.5 -99t116.5 -263q0 -47 -8 -88q-22 -123 -98 -224.5zM816 586q58 49 73 135q4 33 4 47q0 66 -42 101.5t-128 35.5h-191l-65 -368h190q101 0 159 49z" />
<glyph unicode="&#xdf;" horiz-adv-x="1495" d="M402 1443q171 130 444 130q145 0 251.5 -43t162 -116t55.5 -163q0 -106 -57.5 -184t-151.5 -160q-47 -43 -69.5 -67.5t-22.5 -44.5q0 -25 30.5 -45.5t139.5 -63.5q129 -51 184 -119.5t55 -183.5q0 -119 -64.5 -211t-179 -142t-259.5 -50q-209 0 -320 103t-100 288h321 q-4 -63 30 -100.5t95 -37.5q63 0 98 28t35 81q0 39 -31.5 67.5t-115.5 59.5q-147 55 -213 111.5t-66 138.5q0 70 43 127t125 131q70 63 102.5 104t32.5 88q0 51 -44 82t-121 31q-111 0 -174.5 -55.5t-79.5 -157.5l-189 -1069h-348l193 1094q38 219 209 349z" />
<glyph unicode="&#xe0;" d="M176 883q90 133 217 204.5t269 71.5q121 0 202.5 -49t118.5 -129l29 162h350l-203 -1143h-350l31 162q-66 -80 -166.5 -129t-220.5 -49q-121 0 -214.5 55t-144.5 156.5t-51 238.5q0 66 12 139q31 177 121 310zM918 639q0 100 -58.5 157.5t-148.5 57.5 q-104 0 -190.5 -74.5t-108.5 -206.5q-6 -37 -6 -67q0 -100 58 -158.5t146 -58.5q104 0 190.5 75.5t110.5 206.5q7 37 7 68zM1096 1462l-45 -241l-455 206l47 273z" />
<glyph unicode="&#xe1;" d="M176 883q90 133 217 204.5t269 71.5q121 0 202.5 -49t118.5 -129l29 162h350l-203 -1143h-350l31 162q-66 -80 -166.5 -129t-220.5 -49q-121 0 -214.5 55t-144.5 156.5t-51 238.5q0 66 12 139q31 177 121 310zM918 639q0 100 -58.5 157.5t-148.5 57.5 q-104 0 -190.5 -74.5t-108.5 -206.5q-6 -37 -6 -67q0 -100 58 -158.5t146 -58.5q104 0 190.5 75.5t110.5 206.5q7 37 7 68zM1090 1427l-533 -206l43 241l537 238z" />
<glyph unicode="&#xe2;" d="M176 883q90 133 217 204.5t269 71.5q121 0 202.5 -49t118.5 -129l29 162h350l-203 -1143h-350l31 162q-66 -80 -166.5 -129t-220.5 -49q-121 0 -214.5 55t-144.5 156.5t-51 238.5q0 66 12 139q31 177 121 310zM918 639q0 100 -58.5 157.5t-148.5 57.5 q-104 0 -190.5 -74.5t-108.5 -206.5q-6 -37 -6 -67q0 -100 58 -158.5t146 -58.5q104 0 190.5 75.5t110.5 206.5q7 37 7 68zM846 1395l-350 -178l43 241l348 172l287 -172l-43 -241z" />
<glyph unicode="&#xe3;" d="M176 883q90 133 217 204.5t269 71.5q121 0 202.5 -49t118.5 -129l29 162h350l-203 -1143h-350l31 162q-66 -80 -166.5 -129t-220.5 -49q-121 0 -214.5 55t-144.5 156.5t-51 238.5q0 66 12 139q31 177 121 310zM918 639q0 100 -58.5 157.5t-148.5 57.5 q-104 0 -190.5 -74.5t-108.5 -206.5q-6 -37 -6 -67q0 -100 58 -158.5t146 -58.5q104 0 190.5 75.5t110.5 206.5q7 37 7 68zM746 1552q45 0 77.5 -13t73.5 -40q31 -20 53.5 -29.5t47.5 -9.5q78 0 104 92h180q-100 -303 -335 -303q-45 0 -78 13.5t-74 40.5q-31 20 -53.5 29 t-46.5 9q-74 0 -107 -92h-178q100 303 336 303z" />
<glyph unicode="&#xe4;" d="M176 883q90 133 217 204.5t269 71.5q121 0 202.5 -49t118.5 -129l29 162h350l-203 -1143h-350l31 162q-66 -80 -166.5 -129t-220.5 -49q-121 0 -214.5 55t-144.5 156.5t-51 238.5q0 66 12 139q31 177 121 310zM918 639q0 100 -58.5 157.5t-148.5 57.5 q-104 0 -190.5 -74.5t-108.5 -206.5q-6 -37 -6 -67q0 -100 58 -158.5t146 -58.5q104 0 190.5 75.5t110.5 206.5q7 37 7 68zM526 1304.5q-36 34.5 -36 88.5q0 74 54 126t126 52q57 0 92 -35t35 -88q0 -74 -54.5 -126t-125.5 -52q-55 0 -91 34.5zM935 1304.5 q-36 34.5 -36 88.5q0 74 54.5 126t126.5 52q57 0 92 -35t35 -88q0 -74 -54.5 -126t-126.5 -52q-55 0 -91 34.5z" />
<glyph unicode="&#xe5;" d="M176 883q90 133 217 204.5t269 71.5q121 0 202.5 -49t118.5 -129l29 162h350l-203 -1143h-350l31 162q-66 -80 -166.5 -129t-220.5 -49q-121 0 -214.5 55t-144.5 156.5t-51 238.5q0 66 12 139q31 177 121 310zM918 639q0 100 -58.5 157.5t-148.5 57.5 q-104 0 -190.5 -74.5t-108.5 -206.5q-6 -37 -6 -67q0 -100 58 -158.5t146 -58.5q104 0 190.5 75.5t110.5 206.5q7 37 7 68zM713.5 1654.5q82.5 67.5 189.5 67.5q92 0 150.5 -52t58.5 -142q0 -88 -41 -156.5t-109.5 -106.5t-146.5 -38q-92 0 -150.5 53t-58.5 143q0 14 4 52 q21 112 103.5 179.5zM936.5 1553.5q-23.5 21.5 -60.5 21.5q-47 0 -82.5 -34t-35.5 -85q0 -37 23.5 -59.5t60.5 -22.5q47 0 82.5 35t35.5 88q0 35 -23.5 56.5z" />
<glyph unicode="&#xe6;" horiz-adv-x="2189" d="M2030.5 1041.5q113.5 -117.5 113.5 -318.5q0 -63 -12 -131q-10 -53 -27 -100h-848q-4 -113 54.5 -170.5t150.5 -57.5q82 0 140.5 31t89.5 84h374q-74 -174 -220 -284.5t-328 -110.5q-123 0 -211 48t-125 132l-29 -164h-342l29 164q-68 -82 -168.5 -131t-216.5 -49 q-121 0 -214.5 55t-145.5 157.5t-52 239.5q0 63 12 137q31 176 121 309.5t219 205t273 71.5q115 0 195.5 -45t121.5 -131l27 160h344l-29 -160q150 176 397 176q193 0 306.5 -117.5zM1792 707q0 80 -60.5 126t-154.5 46t-173 -53.5t-114 -155.5h498q4 25 4 37zM918 639 q0 100 -58.5 157.5t-148.5 57.5q-104 0 -190.5 -74.5t-108.5 -206.5q-6 -37 -6 -67q0 -100 58 -158.5t146 -58.5q104 0 190.5 75.5t110.5 206.5q7 37 7 68z" />
<glyph unicode="&#xe7;" horiz-adv-x="1239" d="M774 414h375q-72 -174 -207 -285t-313 -137l-15 -76q94 0 161 -46t67 -138q0 -31 -4 -49q-20 -117 -114.5 -177.5t-211.5 -60.5h-315l34 193h267q41 0 64.5 12t27.5 41q6 29 -12.5 40t-59.5 11h-145l45 250q-174 29 -274.5 146.5t-100.5 301.5q0 63 12 131 q31 178 127.5 311.5t238.5 205t310 71.5q215 0 340 -112.5t133 -317.5h-373q-23 131 -159 131q-96 0 -166 -74.5t-94 -214.5q-8 -43 -9 -90q0 -96 45.5 -147t122.5 -51q135 0 203 131z" />
<glyph unicode="&#xe8;" horiz-adv-x="1261" d="M1086.5 1039.5q130.5 -119.5 130.5 -326.5q0 -68 -11 -121q-8 -47 -24 -100h-793q-2 -12 -2 -39q0 -90 49 -137.5t131 -47.5q131 0 201 111h373q-74 -174 -240 -284.5t-373 -110.5q-221 0 -353 122.5t-132 333.5q0 63 12 131q31 178 127.5 311.5t239.5 205t313 71.5 q221 0 351.5 -119.5zM866 709q0 82 -51 126t-135 44q-90 0 -158.5 -54.5t-99.5 -154.5h440q4 29 4 39zM1041 1462l-45 -241l-455 206l47 273z" />
<glyph unicode="&#xe9;" horiz-adv-x="1261" d="M1086.5 1039.5q130.5 -119.5 130.5 -326.5q0 -68 -11 -121q-8 -47 -24 -100h-793q-2 -12 -2 -39q0 -90 49 -137.5t131 -47.5q131 0 201 111h373q-74 -174 -240 -284.5t-373 -110.5q-221 0 -353 122.5t-132 333.5q0 63 12 131q31 178 127.5 311.5t239.5 205t313 71.5 q221 0 351.5 -119.5zM866 709q0 82 -51 126t-135 44q-90 0 -158.5 -54.5t-99.5 -154.5h440q4 29 4 39zM1035 1427l-533 -206l43 241l537 238z" />
<glyph unicode="&#xea;" horiz-adv-x="1261" d="M1086.5 1039.5q130.5 -119.5 130.5 -326.5q0 -68 -11 -121q-8 -47 -24 -100h-793q-2 -12 -2 -39q0 -90 49 -137.5t131 -47.5q131 0 201 111h373q-74 -174 -240 -284.5t-373 -110.5q-221 0 -353 122.5t-132 333.5q0 63 12 131q31 178 127.5 311.5t239.5 205t313 71.5 q221 0 351.5 -119.5zM866 709q0 82 -51 126t-135 44q-90 0 -158.5 -54.5t-99.5 -154.5h440q4 29 4 39zM790 1395l-350 -178l43 241l348 172l287 -172l-43 -241z" />
<glyph unicode="&#xeb;" horiz-adv-x="1261" d="M1086.5 1039.5q130.5 -119.5 130.5 -326.5q0 -68 -11 -121q-8 -47 -24 -100h-793q-2 -12 -2 -39q0 -90 49 -137.5t131 -47.5q131 0 201 111h373q-74 -174 -240 -284.5t-373 -110.5q-221 0 -353 122.5t-132 333.5q0 63 12 131q31 178 127.5 311.5t239.5 205t313 71.5 q221 0 351.5 -119.5zM866 709q0 82 -51 126t-135 44q-90 0 -158.5 -54.5t-99.5 -154.5h440q4 29 4 39zM470 1304.5q-36 34.5 -36 88.5q0 74 54 126t126 52q57 0 92 -35t35 -88q0 -74 -54.5 -126t-125.5 -52q-55 0 -91 34.5zM879 1304.5q-36 34.5 -36 88.5q0 74 54.5 126 t126.5 52q57 0 92 -35t35 -88q0 -74 -54.5 -126t-126.5 -52q-55 0 -91 34.5z" />
<glyph unicode="&#xec;" horiz-adv-x="657" d="M602 1143l-203 -1143h-350l203 1143h350zM723 1462l-45 -241l-455 206l47 273z" />
<glyph unicode="&#xed;" horiz-adv-x="657" d="M602 1143l-203 -1143h-350l203 1143h350zM717 1427l-533 -206l43 241l537 238z" />
<glyph unicode="&#xee;" horiz-adv-x="657" d="M602 1143l-203 -1143h-350l203 1143h350zM473 1395l-350 -178l43 241l348 172l287 -172l-43 -241z" />
<glyph unicode="&#xef;" horiz-adv-x="657" d="M602 1143l-203 -1143h-350l203 1143h350zM153 1304.5q-36 34.5 -36 88.5q0 74 54 126t126 52q57 0 92 -35t35 -88q0 -74 -54.5 -126t-125.5 -52q-55 0 -91 34.5zM562 1304.5q-36 34.5 -36 88.5q0 74 54.5 126t126.5 52q57 0 92 -35t35 -88q0 -74 -54.5 -126t-126.5 -52 q-55 0 -91 34.5z" />
<glyph unicode="&#xf0;" horiz-adv-x="1310" d="M1278 823q0 -90 -14 -174q-37 -211 -142.5 -360.5t-254 -226t-316.5 -76.5q-147 0 -262 57t-179.5 163.5t-64.5 250.5q0 49 10 116q31 176 129.5 308.5t238.5 203t298 70.5q127 0 229 -63q-25 92 -73 178l-228 -66l25 137l133 39q-53 72 -117 136h322q18 -20 51 -62 l205 59l-25 -137l-106 -30q141 -242 141 -523zM899 643q0 104 -56.5 158.5t-140.5 54.5q-98 0 -182 -72.5t-108 -212.5q-6 -39 -6 -71q0 -104 57 -159.5t141 -55.5q98 0 180 73.5t109 212.5q6 41 6 72z" />
<glyph unicode="&#xf1;" horiz-adv-x="1380" d="M1192 1059q98 -96 98 -268q0 -57 -12 -123l-119 -668h-348l111 621q6 35 6 61q0 86 -48.5 133t-134.5 47q-102 0 -171.5 -63.5t-90.5 -177.5v10l-110 -631h-350l200 1143h350l-26 -154q68 76 165 121t210 45q172 0 270 -96zM782 1552q45 0 77.5 -13t73.5 -40 q31 -20 53.5 -29.5t47.5 -9.5q78 0 104 92h180q-100 -303 -335 -303q-45 0 -78 13.5t-74 40.5q-31 20 -53.5 29t-46.5 9q-74 0 -107 -92h-178q100 303 336 303z" />
<glyph unicode="&#xf2;" horiz-adv-x="1304" d="M282.5 43q-114.5 59 -177 167.5t-62.5 252.5q0 195 92 354.5t254 250.5t361 91q147 0 262.5 -60.5t179 -169t63.5 -251.5q0 -197 -93 -355.5t-256 -248.5t-361 -90q-148 0 -262.5 59zM748.5 337q68.5 52 106.5 135t38 173q0 102 -55.5 157.5t-139.5 55.5 q-88 0 -154.5 -52t-103.5 -136t-37 -176q0 -100 53.5 -154.5t137.5 -54.5q86 0 154.5 52zM1047 1478l-45 -241l-455 206l47 273z" />
<glyph unicode="&#xf3;" horiz-adv-x="1304" d="M282.5 43q-114.5 59 -177 167.5t-62.5 252.5q0 195 92 354.5t254 250.5t361 91q147 0 262.5 -60.5t179 -169t63.5 -251.5q0 -197 -93 -355.5t-256 -248.5t-361 -90q-148 0 -262.5 59zM748.5 337q68.5 52 106.5 135t38 173q0 102 -55.5 157.5t-139.5 55.5 q-88 0 -154.5 -52t-103.5 -136t-37 -176q0 -100 53.5 -154.5t137.5 -54.5q86 0 154.5 52zM1041 1443l-533 -206l43 241l537 238z" />
<glyph unicode="&#xf4;" horiz-adv-x="1304" d="M282.5 43q-114.5 59 -177 167.5t-62.5 252.5q0 195 92 354.5t254 250.5t361 91q147 0 262.5 -60.5t179 -169t63.5 -251.5q0 -197 -93 -355.5t-256 -248.5t-361 -90q-148 0 -262.5 59zM748.5 337q68.5 52 106.5 135t38 173q0 102 -55.5 157.5t-139.5 55.5 q-88 0 -154.5 -52t-103.5 -136t-37 -176q0 -100 53.5 -154.5t137.5 -54.5q86 0 154.5 52zM794 1411l-350 -178l43 241l348 172l287 -172l-43 -241z" />
<glyph unicode="&#xf5;" horiz-adv-x="1304" d="M282.5 43q-114.5 59 -177 167.5t-62.5 252.5q0 195 92 354.5t254 250.5t361 91q147 0 262.5 -60.5t179 -169t63.5 -251.5q0 -197 -93 -355.5t-256 -248.5t-361 -90q-148 0 -262.5 59zM748.5 337q68.5 52 106.5 135t38 173q0 102 -55.5 157.5t-139.5 55.5 q-88 0 -154.5 -52t-103.5 -136t-37 -176q0 -100 53.5 -154.5t137.5 -54.5q86 0 154.5 52zM694 1568q45 0 77.5 -13t73.5 -40q31 -20 53.5 -29.5t47.5 -9.5q78 0 104 92h180q-100 -303 -335 -303q-45 0 -78 13.5t-74 40.5q-31 20 -53.5 29t-46.5 9q-74 0 -107 -92h-178 q100 303 336 303z" />
<glyph unicode="&#xf6;" horiz-adv-x="1304" d="M282.5 43q-114.5 59 -177 167.5t-62.5 252.5q0 195 92 354.5t254 250.5t361 91q147 0 262.5 -60.5t179 -169t63.5 -251.5q0 -197 -93 -355.5t-256 -248.5t-361 -90q-148 0 -262.5 59zM748.5 337q68.5 52 106.5 135t38 173q0 102 -55.5 157.5t-139.5 55.5 q-88 0 -154.5 -52t-103.5 -136t-37 -176q0 -100 53.5 -154.5t137.5 -54.5q86 0 154.5 52zM476 1320.5q-36 34.5 -36 88.5q0 74 54 126t126 52q57 0 92 -35t35 -88q0 -74 -54.5 -126t-125.5 -52q-55 0 -91 34.5zM885 1320.5q-36 34.5 -36 88.5q0 74 54.5 126t126.5 52 q57 0 92 -35t35 -88q0 -74 -54.5 -126t-126.5 -52q-55 0 -91 34.5z" />
<glyph unicode="&#xf7;" horiz-adv-x="1251" d="M574.5 1035q-48.5 44 -48.5 112q0 94 71 159.5t175 65.5q80 0 127 -44t47 -114q0 -92 -70.5 -157.5t-170.5 -65.5q-82 0 -130.5 44zM1204 874l-55 -315h-1045l56 315h1044zM378 107.5q-48 44.5 -48 111.5q0 94 70.5 159.5t174.5 65.5q80 0 127.5 -44t47.5 -113 q0 -92 -71 -158t-171 -66q-82 0 -130 44.5z" />
<glyph unicode="&#xf8;" horiz-adv-x="1288" d="M1161 963q86 -119 86 -285q0 -197 -93 -355.5t-256 -248.5t-361 -90q-199 0 -332 104l-94 -88h-189l197 180q-84 119 -84 283q0 195 92 354.5t254 250.5t360 91q201 0 334 -104l96 88h187zM399 438l416 379q-53 41 -125 41q-88 0 -154.5 -52t-103.5 -136t-37 -176 q0 -23 4 -56zM879 705l-414 -381q47 -39 121 -39q86 0 154.5 52t106.5 135t38 173q0 33 -6 60z" />
<glyph unicode="&#xf9;" horiz-adv-x="1380" d="M1352 1143l-201 -1143h-350l26 156q-68 -76 -165 -122t-207 -46q-172 0 -270.5 97t-98.5 271q0 66 10 119l119 668h348l-108 -621q-6 -33 -6 -63q0 -86 48 -132t134 -46q98 0 166.5 58t91.5 167l112 637h351zM1086 1462l-45 -241l-455 206l47 273z" />
<glyph unicode="&#xfa;" horiz-adv-x="1380" d="M1352 1143l-201 -1143h-350l26 156q-68 -76 -165 -122t-207 -46q-172 0 -270.5 97t-98.5 271q0 66 10 119l119 668h348l-108 -621q-6 -33 -6 -63q0 -86 48 -132t134 -46q98 0 166.5 58t91.5 167l112 637h351zM1080 1427l-533 -206l43 241l537 238z" />
<glyph unicode="&#xfb;" horiz-adv-x="1380" d="M1352 1143l-201 -1143h-350l26 156q-68 -76 -165 -122t-207 -46q-172 0 -270.5 97t-98.5 271q0 66 10 119l119 668h348l-108 -621q-6 -33 -6 -63q0 -86 48 -132t134 -46q98 0 166.5 58t91.5 167l112 637h351zM835 1395l-350 -178l43 241l348 172l287 -172l-43 -241z" />
<glyph unicode="&#xfc;" horiz-adv-x="1380" d="M1352 1143l-201 -1143h-350l26 156q-68 -76 -165 -122t-207 -46q-172 0 -270.5 97t-98.5 271q0 66 10 119l119 668h348l-108 -621q-6 -33 -6 -63q0 -86 48 -132t134 -46q98 0 166.5 58t91.5 167l112 637h351zM515 1304.5q-36 34.5 -36 88.5q0 74 54 126t126 52 q57 0 92 -35t35 -88q0 -74 -54.5 -126t-125.5 -52q-55 0 -91 34.5zM924 1304.5q-36 34.5 -36 88.5q0 74 54.5 126t126.5 52q57 0 92 -35t35 -88q0 -74 -54.5 -126t-126.5 -52q-55 0 -91 34.5z" />
<glyph unicode="&#xfd;" horiz-adv-x="1294" d="M485 1143l140 -715l389 715h379l-1014 -1686h-377l365 582l-271 1104h389zM1035 1427l-533 -206l43 241l537 238z" />
<glyph unicode="&#xfe;" d="M911 1155q125 0 222.5 -57.5t152.5 -162t55 -239.5q0 -61 -12 -127q-31 -170 -124 -303t-225 -206.5t-273 -73.5q-211 0 -306 180l-125 -711h-350l365 2061h350l-92 -523q145 162 362 162zM979 637q0 102 -60.5 158.5t-144.5 56.5q-98 0 -187 -72.5t-114 -208.5 q-6 -33 -6 -63q0 -106 60.5 -162.5t146.5 -56.5q63 0 125.5 31.5t109.5 94t64 154.5q6 37 6 68z" />
<glyph unicode="&#xff;" horiz-adv-x="1294" d="M485 1143l140 -715l389 715h379l-1014 -1686h-377l365 582l-271 1104h389zM470 1304.5q-36 34.5 -36 88.5q0 74 54 126t126 52q57 0 92 -35t35 -88q0 -74 -54.5 -126t-125.5 -52q-55 0 -91 34.5zM879 1304.5q-36 34.5 -36 88.5q0 74 54.5 126t126.5 52q57 0 92 -35 t35 -88q0 -74 -54.5 -126t-126.5 -52q-55 0 -91 34.5z" />
<glyph unicode="&#x131;" horiz-adv-x="657" d="M602 1143l-203 -1143h-350l203 1143h350z" />
<glyph unicode="&#x152;" horiz-adv-x="2189" d="M1606 862h471l-47 -266h-471l-56 -320h531l-49 -276h-881l26 147q-178 -162 -448 -167q-174 0 -308 73.5t-209 208.5t-75 311q0 72 12 148q39 213 162 381t302 262t376 94q127 0 227.5 -41t163.5 -123l25 144h880l-49 -277h-530zM451 618q0 -147 83.5 -232t231.5 -85 q172 0 297 114.5t158 305.5q10 57 10 100q0 147 -84 231.5t-234 84.5q-174 0 -295.5 -113t-156.5 -303q-10 -58 -10 -103z" />
<glyph unicode="&#x153;" horiz-adv-x="2131" d="M1928 1038.5q130 -120.5 130 -327.5q0 -51 -10 -119q-8 -41 -29 -100h-788q-2 -16 -2 -46q0 -88 47 -133t127 -45q131 0 201 111h374q-74 -172 -240.5 -283.5t-373.5 -111.5q-123 0 -219 44t-156 128q-90 -84 -206.5 -128t-241.5 -44q-147 0 -260 55t-175.5 160.5 t-62.5 246.5q0 61 12 125q31 176 132.5 310.5t250 206t316.5 71.5q123 0 222 -45t161 -127q88 82 201.5 127t238.5 45q221 0 351 -120.5zM1706 709q0 80 -51 125t-133 45q-90 0 -160 -55.5t-100 -157.5h440q4 29 4 43zM893 643q0 104 -55.5 159.5t-141.5 55.5 q-100 0 -181 -73.5t-103 -213.5q-8 -57 -9 -77q0 -102 52.5 -155.5t138.5 -53.5q100 0 184 74.5t109 211.5q6 41 6 72z" />
<glyph unicode="&#x178;" horiz-adv-x="1374" d="M1509 1438l-665 -963l-86 -475h-350l86 475l-330 963h397l172 -600l383 600h393zM565 1603.5q-36 34.5 -36 88.5q0 74 54 126t126 52q57 0 92 -35t35 -88q0 -74 -54.5 -126t-125.5 -52q-55 0 -91 34.5zM974 1603.5q-36 34.5 -36 88.5q0 74 54.5 126t126.5 52q57 0 92 -35 t35 -88q0 -74 -54.5 -126t-126.5 -52q-55 0 -91 34.5z" />
<glyph unicode="&#x2c6;" horiz-adv-x="675" d="M481 1395l-350 -178l43 241l348 172l287 -172l-43 -241z" />
<glyph unicode="&#x2da;" horiz-adv-x="536" d="M279.5 1654.5q82.5 67.5 189.5 67.5q92 0 150.5 -52t58.5 -142q0 -88 -41 -156.5t-109.5 -106.5t-146.5 -38q-92 0 -150.5 53t-58.5 143q0 14 4 52q21 112 103.5 179.5zM502.5 1553.5q-23.5 21.5 -60.5 21.5q-47 0 -82.5 -34t-35.5 -85q0 -37 23.5 -59.5t60.5 -22.5 q47 0 82.5 35t35.5 88q0 35 -23.5 56.5z" />
<glyph unicode="&#x2dc;" horiz-adv-x="839" d="M463 1552q45 0 77.5 -13t73.5 -40q31 -20 53.5 -29.5t47.5 -9.5q78 0 104 92h180q-100 -303 -335 -303q-45 0 -78 13.5t-74 40.5q-31 20 -53.5 29t-46.5 9q-74 0 -107 -92h-178q100 303 336 303z" />
<glyph unicode="&#x2000;" horiz-adv-x="1010" />
<glyph unicode="&#x2001;" horiz-adv-x="2021" />
<glyph unicode="&#x2002;" horiz-adv-x="1010" />
<glyph unicode="&#x2003;" horiz-adv-x="2021" />
<glyph unicode="&#x2004;" horiz-adv-x="673" />
<glyph unicode="&#x2005;" horiz-adv-x="505" />
<glyph unicode="&#x2006;" horiz-adv-x="336" />
<glyph unicode="&#x2007;" horiz-adv-x="336" />
<glyph unicode="&#x2008;" horiz-adv-x="252" />
<glyph unicode="&#x2009;" horiz-adv-x="404" />
<glyph unicode="&#x200a;" horiz-adv-x="112" />
<glyph unicode="&#x2010;" horiz-adv-x="1187" d="M1057 864l-53 -291h-902l54 291h901z" />
<glyph unicode="&#x2011;" horiz-adv-x="1187" d="M1057 864l-53 -291h-902l54 291h901z" />
<glyph unicode="&#x2012;" horiz-adv-x="1187" d="M1057 864l-53 -291h-902l54 291h901z" />
<glyph unicode="&#x2013;" horiz-adv-x="1423" d="M1329 864l-51 -291h-1137l52 291h1136z" />
<glyph unicode="&#x2014;" horiz-adv-x="1904" d="M1810 864l-51 -291h-1618l52 291h1617z" />
<glyph unicode="&#x2018;" horiz-adv-x="643" d="M475 889h-358l327 549h234z" />
<glyph unicode="&#x2019;" horiz-adv-x="643" d="M375 1438h358l-325 -549h-236z" />
<glyph unicode="&#x201a;" horiz-adv-x="602" d="M129 334h358l-327 -549h-234z" />
<glyph unicode="&#x201c;" horiz-adv-x="1122" d="M475 889h-358l327 549h234zM954 889h-358l326 549h235z" />
<glyph unicode="&#x201d;" horiz-adv-x="1122" d="M375 1438h358l-325 -549h-236zM854 1438h358l-325 -549h-236z" />
<glyph unicode="&#x201e;" horiz-adv-x="1073" d="M129 334h358l-327 -549h-234zM600 334h356l-325 -549h-236z" />
<glyph unicode="&#x2022;" horiz-adv-x="1026" d="M288.5 445.5q-71.5 70.5 -71.5 181.5q0 98 51 182t136 133t180 49q115 0 186.5 -70.5t71.5 -181.5q0 -96 -51.5 -180t-136.5 -134t-179 -50q-115 0 -186.5 70.5z" />
<glyph unicode="&#x2026;" horiz-adv-x="1556" d="M546 28q-48 44 -48 111q0 94 70.5 160t175.5 66q80 0 127 -44.5t47 -113.5q0 -92 -70.5 -157.5t-171.5 -65.5q-82 0 -130 44zM1039 28q-48 44 -48 111q0 94 70.5 160t175.5 66q80 0 127 -44.5t47 -113.5q0 -92 -70.5 -157.5t-171.5 -65.5q-82 0 -130 44zM54 28 q-48 44 -48 111q0 94 70.5 160t175.5 66q80 0 127 -44.5t47 -113.5q0 -92 -70.5 -157.5t-171.5 -65.5q-82 0 -130 44z" />
<glyph unicode="&#x202f;" horiz-adv-x="404" />
<glyph unicode="&#x2039;" horiz-adv-x="690" d="M203 246l-109 358l236 359h323l-241 -359l114 -358h-323z" />
<glyph unicode="&#x203a;" horiz-adv-x="690" d="M283 604l-115 359h324l108 -359l-235 -358h-324z" />
<glyph unicode="&#x205f;" horiz-adv-x="505" />
<glyph unicode="&#x20ac;" horiz-adv-x="1630" d="M1024 356q86 47 145 136h385q-102 -233 -309 -367.5t-463 -134.5q-254 0 -413.5 133t-186.5 360h-159l32 183h127q4 37 8 55l13 59h-127l30 185h162q109 225 314.5 357t457.5 132q256 0 415 -135t179 -369h-385q-29 88 -98.5 134t-171.5 46q-98 0 -183 -43t-147 -122h342 l-30 -185h-402l-12 -59q-6 -27 -6 -55h399l-33 -183h-346q33 -84 103.5 -129t171.5 -45q102 0 188 47z" />
<glyph unicode="&#x2122;" horiz-adv-x="1808" d="M797 1446l-37 -203h-168l-92 -516h-252l92 516h-170l37 203h590zM1868 1446l-127 -719h-232l68 412l-244 -412h-170l-90 432l-76 -432h-223l127 719h340l72 -412l239 412h316z" />
<glyph unicode="&#x2212;" horiz-adv-x="1112" d="M1057 864l-53 -291h-902l54 291h901z" />
<glyph unicode="&#x25fc;" horiz-adv-x="1146" d="M0 1147h1147v-1147h-1147v1147z" />
<glyph unicode="&#xfb01;" horiz-adv-x="1345" d="M610 1143h680l-203 -1143h-350l152 852h-330l-149 -852h-353l150 852h-127l51 291h127l6 33q39 211 175 320.5t362 109.5q37 0 55 -2l-51 -297q-90 6 -133 -29t-60 -125zM1329 1566q47 -42 47 -112q0 -92 -69.5 -152.5t-173.5 -60.5q-82 0 -129.5 41t-47.5 109 q0 92 70 154.5t172 62.5q84 0 131 -42z" />
<glyph unicode="&#xfb02;" horiz-adv-x="1341" d="M675 1278q-46 -35 -63 -125l-2 -10h189l-51 -291h-189l-149 -852h-353l150 852h-127l51 291h127l6 33q39 211 179.5 320.5t373.5 109.5q37 0 55 -2l-51 -297q-100 6 -146 -29zM1378 1516l-268 -1516h-350l268 1516h350z" />
</font>
</defs>
</svg>
